<svg id="Layer_1" data-name="Layer 1" xmlns="http://www.w3.org/2000/svg" xmlns:xlink="http://www.w3.org/1999/xlink" viewBox="0 0 829.31 857"><defs><style>.cls-1{fill:url(#linear-gradient);}.cls-2{fill:url(#linear-gradient-2);}</style><linearGradient id="linear-gradient" x1="-273.81" y1="-148.3" x2="319.56" y2="445.06" gradientUnits="userSpaceOnUse"><stop offset="0" stop-color="#99caeb"/><stop offset="0.21" stop-color="#93c6ea"/><stop offset="0.36" stop-color="#8bc2e8"/><stop offset="0.49" stop-color="#7fbce6"/><stop offset="0.73" stop-color="#5facdf"/><stop offset="1" stop-color="#3395d6"/></linearGradient><linearGradient id="linear-gradient-2" x1="113.5" y1="206.74" x2="439.77" y2="533.01" gradientUnits="userSpaceOnUse"><stop offset="0" stop-color="#99caeb"/><stop offset="0.16" stop-color="#93c7ea"/><stop offset="0.39" stop-color="#81bde6"/><stop offset="0.66" stop-color="#64aee0"/><stop offset="0.95" stop-color="#3b99d8"/><stop offset="1" stop-color="#3395d6"/></linearGradient></defs><path class="cls-1" d="M486.16,928.5H85.34V71.5H486.16c114.45,0,222.06,44.57,303,125.5S914.66,385.54,914.66,500,870.08,722.06,789.15,803,600.61,928.5,486.16,928.5ZM151.27,862.58H486.16c199.92,0,362.57-162.65,362.57-362.58S686.08,137.42,486.16,137.42H151.27Z" transform="translate(-85.34 -71.5)"/><path class="cls-2" d="M494,304.87H310.8V766.81h65.92v-73H494c107.23,0,194.47-87.24,194.47-194.47S601.2,304.87,494,304.87Zm0,323H376.72V370.79H494a128.55,128.55,0,0,1,0,257.1Z" transform="translate(-85.34 -71.5)"/></svg>