<svg id="Layer_1" data-name="Layer 1" xmlns="http://www.w3.org/2000/svg" xmlns:xlink="http://www.w3.org/1999/xlink" viewBox="0 0 644 496"><defs><style>.cls-1{fill:#3395d6;}.cls-2{fill:url(#linear-gradient);}.cls-3{fill:url(#linear-gradient-2);}.cls-4{fill:#fff;}.cls-5{fill:url(#linear-gradient-3);}.cls-6{opacity:0.6;fill:url(#linear-gradient-4);}</style><linearGradient id="linear-gradient" x1="251.12" y1="516" x2="405.87" y2="516" gradientUnits="userSpaceOnUse"><stop offset="0.56" stop-color="#3395d6"/><stop offset="0.66" stop-color="#3293d3"/><stop offset="0.75" stop-color="#308cc9"/><stop offset="0.82" stop-color="#2c80b7"/><stop offset="0.89" stop-color="#266f9f"/><stop offset="0.96" stop-color="#1f5a80"/><stop offset="1" stop-color="#1a4b6b"/></linearGradient><linearGradient id="linear-gradient-2" x1="227.91" y1="135.34" x2="329.75" y2="33.5" gradientUnits="userSpaceOnUse"><stop offset="0.39" stop-color="#3395d6"/><stop offset="0.51" stop-color="#3a98d7" stop-opacity="0.97"/><stop offset="0.68" stop-color="#4ca2db" stop-opacity="0.88"/><stop offset="0.87" stop-color="#6bb2e1" stop-opacity="0.73"/><stop offset="1" stop-color="#85bfe6" stop-opacity="0.6"/></linearGradient><linearGradient id="linear-gradient-3" x1="726.12" y1="440" x2="880.87" y2="440" gradientTransform="translate(1475 924) rotate(180)" xlink:href="#linear-gradient"/><linearGradient id="linear-gradient-4" x1="702.29" y1="352.48" x2="763.26" y2="291.51" gradientUnits="userSpaceOnUse"><stop offset="0.56" stop-color="#3395d6"/><stop offset="0.72" stop-color="#3596d6"/><stop offset="0.8" stop-color="#3d9ad8"/><stop offset="0.87" stop-color="#4ba1db"/><stop offset="0.93" stop-color="#5eabde"/><stop offset="0.98" stop-color="#77b8e3"/><stop offset="1" stop-color="#85bfe6"/></linearGradient></defs><title>logo-dp</title><path class="cls-1" d="M487,252V594h0c-.27,85-69.47,154-154.49,154C247.31,748,178,678.69,178,593.5a154.48,154.48,0,0,1,69.25-128.78L298,533.21A69.48,69.48,0,1,0,402,593.5c0-.17,0-.34,0-.51h0V456l-.5-.7.5.24v-129h.57Z" transform="translate(-178 -252)"/><path class="cls-2" d="M332.5,524A69.58,69.58,0,0,1,402,593h0V456l-.5-.7a154.16,154.16,0,0,0-154.25,9.42L298,533.21A69,69,0,0,1,332.5,524Z" transform="translate(-178 -252)"/><polygon class="cls-3" points="309 0 309 119 224 119 224 74.5 224.57 74.5 309 0"/><path class="cls-4" d="M709.06,350.83a71.4,71.4,0,0,1,6.63,5.63,93.31,93.31,0,0,1-9.56-7.7c.61.41,1.22.83,1.82,1.26Q708.51,350.41,709.06,350.83Z" transform="translate(-178 -252)"/><path class="cls-1" d="M822,406.5a154.48,154.48,0,0,1-69.25,128.78L702,466.79a69.52,69.52,0,0,0,35-60.29q0-1.8-.09-3.57,0-.72-.09-1.44a68.09,68.09,0,0,0-1.24-9c-.06-.33-.13-.66-.21-1s-.15-.71-.24-1.07-.22-.92-.34-1.38-.27-1-.41-1.53l0-.08c-.15-.54-.31-1.08-.48-1.61s-.32-1-.49-1.52l-.06-.18c-.17-.51-.35-1-.55-1.53s-.34-.94-.53-1.4l-.12-.31c-.15-.4-.31-.8-.48-1.19l-.17-.41c-.19-.43-.37-.85-.56-1.27l-.09-.2c-.22-.49-.45-1-.68-1.44l0,0c-.24-.5-.48-1-.74-1.48s-.44-.87-.68-1.29-.33-.62-.5-.92c-.27-.5-.56-1-.85-1.47s-.4-.67-.6-1-.41-.67-.63-1c-.69-1.09-1.41-2.16-2.16-3.2-.26-.36-.52-.72-.79-1.07q-1.59-2.15-3.35-4.14l-.9-1c-.45-.5-.91-1-1.38-1.48-.31-.32-.61-.63-.92-.93s-.6-.6-.91-.9l0,0a71.4,71.4,0,0,0-6.63-5.63c-.37-.27-.74-.55-1.11-.81-.6-.43-1.21-.85-1.82-1.26h0c-.39-.26-.79-.53-1.19-.78-1.5-1-3-1.87-4.6-2.71-.4-.22-.81-.43-1.22-.64-2-1.05-4.15-2-6.3-2.85q-.72-.28-1.44-.54c-1.1-.41-2.22-.79-3.35-1.14-.5-.16-1-.3-1.51-.45-1.18-.33-2.37-.64-3.57-.91-.48-.11-1-.22-1.45-.31s-1.06-.22-1.59-.31c-1.78-.32-3.58-.58-5.4-.76l-1.3-.12-.7-.05-1.38-.09c-1.2-.06-2.41-.09-3.62-.09A69.58,69.58,0,0,0,598,406.5c0,.17,0,.34,0,.51h0V544l.5.7-.5-.24v129h-.57L513,748V406h0c.27-85,69.47-154,154.49-154,3.68,0,7.34.13,11,.38C743.7,257,797.9,302.27,815.75,363A153.9,153.9,0,0,1,822,406.5Z" transform="translate(-178 -252)"/><path class="cls-5" d="M667.5,476A69.58,69.58,0,0,1,598,407h0V544l.5.7a154.16,154.16,0,0,0,154.25-9.42L702,466.79A69,69,0,0,1,667.5,476Z" transform="translate(-178 -252)"/><path class="cls-6" d="M815.75,363a96.06,96.06,0,0,1-100-6.47l0,0a93.31,93.31,0,0,1-9.56-7.7h0a96.12,96.12,0,0,1-27.66-96.37C743.7,257,797.9,302.27,815.75,363Z" transform="translate(-178 -252)"/></svg>