<?xml version="1.0" standalone="no"?>
<!DOCTYPE svg PUBLIC "-//W3C//DTD SVG 20010904//EN"
 "http://www.w3.org/TR/2001/REC-SVG-20010904/DTD/svg10.dtd">
<svg version="1.0" xmlns="http://www.w3.org/2000/svg"
 width="857.000000pt" height="857.000000pt" viewBox="0 0 857.000000 857.000000"
 preserveAspectRatio="xMidYMid meet">
<metadata>
Created by potrace 1.14, written by Peter Selinger 2001-2017
</metadata>
<g transform="translate(0.000000,857.000000) scale(0.100000,-0.100000)"
fill="#000000" stroke="none">
<path d="M140 4285 l0 -4286 2168 4 c1192 2 2181 7 2197 10 17 4 64 9 105 12
41 3 82 7 90 9 8 3 38 7 65 11 28 3 59 8 70 10 11 3 36 7 55 9 19 3 67 12 105
20 39 8 82 17 95 19 14 3 54 13 90 22 36 9 70 18 75 19 148 33 472 150 670
241 97 45 276 134 290 145 6 5 37 23 70 41 33 18 89 51 125 74 36 23 69 42 74
42 5 1 13 8 18 17 5 9 14 16 19 16 9 0 234 162 294 211 366 302 673 636 891
969 27 41 52 76 57 78 4 2 7 8 7 14 0 5 15 33 34 61 81 124 283 520 302 592 1
6 15 42 31 80 35 82 96 263 91 268 -2 2 3 11 10 20 8 9 11 21 8 26 -4 5 -2 12
3 15 5 3 12 23 16 43 5 21 10 43 11 48 3 10 21 75 28 105 9 34 28 117 32 140
3 14 7 32 9 40 2 8 7 31 10 50 3 19 10 58 15 85 17 89 28 177 47 380 16 173 9
618 -12 810 -8 74 -16 132 -21 160 -7 35 -10 55 -18 110 -6 42 -9 59 -26 140
-6 28 -12 60 -15 72 -7 38 -65 251 -80 296 -8 24 -16 52 -18 63 -2 10 -7 26
-10 34 -3 8 -25 67 -48 130 -66 183 -197 476 -229 515 -6 7 -8 14 -5 17 3 3
-1 11 -10 18 -8 7 -15 19 -15 26 0 8 -4 14 -10 14 -5 0 -10 7 -10 15 0 8 -17
41 -37 72 -21 32 -44 69 -51 83 -18 36 -36 65 -55 92 -9 13 -51 73 -93 133
-42 61 -79 112 -83 115 -4 3 -12 12 -17 21 -10 18 -37 52 -148 183 -177 208
-373 398 -591 573 -33 26 -61 51 -63 56 -2 4 -10 7 -18 7 -8 0 -14 3 -14 8 0
4 -21 21 -45 37 -25 17 -45 33 -45 38 0 4 -6 7 -13 7 -8 0 -25 9 -38 21 -33
28 -189 129 -200 129 -5 0 -9 5 -9 10 0 6 -6 10 -12 11 -7 0 -33 13 -58 29
-67 43 -390 210 -414 214 -6 2 -29 11 -51 21 -22 10 -42 19 -45 20 -3 1 -18 7
-35 14 -62 26 -266 99 -295 106 -36 9 -67 19 -75 24 -5 3 -14 6 -20 7 -5 1
-62 15 -125 32 -63 17 -126 33 -140 36 -14 2 -32 7 -40 10 -8 3 -31 7 -50 10
-19 3 -60 10 -90 16 -30 6 -71 13 -90 16 -19 2 -48 6 -65 9 -67 10 -102 15
-150 20 -27 3 -70 8 -95 12 -25 3 -1020 7 -2212 10 l-2168 4 0 -4286z m806
3621 c7 -3 15 -2 18 2 4 7 54 8 81 2 6 -1 15 -1 20 0 6 1 33 1 60 0 28 0 57
-1 65 0 115 2 231 1 239 -4 5 -4 12 -3 14 2 5 6 54 8 82 2 6 -1 15 -1 20 0 6
1 33 1 60 0 28 0 57 -1 65 -1 45 1 256 2 579 2 201 0 367 1 369 4 3 2 13 0 23
-6 11 -5 19 -6 19 -2 0 4 26 7 57 5 32 -2 65 -3 73 -3 100 4 231 2 239 -3 5
-4 12 -3 14 2 5 6 54 8 82 2 6 -1 15 -2 20 -1 26 5 135 2 144 -4 6 -3 11 -3
11 2 0 4 26 7 57 5 32 -2 65 -3 73 -3 100 4 231 2 239 -3 5 -4 12 -3 14 2 5 6
54 8 82 2 6 -1 15 -2 20 -1 22 3 514 -1 570 -5 111 -7 233 -19 300 -29 22 -3
56 -8 75 -10 39 -5 73 -12 98 -19 9 -3 34 -7 56 -11 21 -3 42 -7 46 -10 5 -3
21 -7 37 -10 15 -2 46 -9 68 -15 70 -19 75 -20 96 -25 39 -8 324 -107 369
-127 24 -11 49 -21 55 -23 53 -12 402 -193 514 -267 14 -10 36 -23 49 -29 12
-7 22 -16 22 -21 0 -4 6 -8 13 -8 7 0 28 -13 47 -30 19 -16 40 -29 47 -30 6 0
13 -3 15 -8 2 -4 37 -33 78 -64 41 -30 85 -64 96 -74 12 -11 44 -37 70 -59 69
-57 341 -329 394 -395 25 -30 47 -57 50 -60 3 -3 28 -34 55 -70 28 -36 52 -67
55 -70 20 -20 180 -263 211 -320 13 -25 26 -47 29 -50 11 -11 126 -239 155
-305 9 -22 21 -47 25 -57 10 -19 73 -178 76 -193 1 -5 16 -50 33 -100 17 -49
31 -91 31 -92 1 -2 3 -8 5 -15 8 -24 56 -213 60 -238 5 -31 13 -66 19 -88 3
-9 8 -37 12 -62 3 -25 8 -54 10 -65 1 -11 5 -42 9 -70 3 -27 8 -57 10 -65 19
-69 26 -626 10 -775 -4 -38 -8 -83 -10 -100 -2 -16 -4 -30 -5 -30 -1 0 -3 -13
-5 -30 -13 -100 -22 -156 -31 -195 -9 -40 -14 -63 -20 -97 -3 -18 -14 -63 -25
-100 -11 -38 -21 -75 -21 -83 -1 -8 -28 -91 -60 -185 -33 -93 -60 -176 -60
-182 -1 -7 -5 -13 -10 -13 -4 0 -8 -5 -8 -12 0 -6 -10 -34 -22 -62 -32 -74
-197 -399 -206 -405 -4 -4 -18 -26 -32 -51 -13 -25 -28 -49 -32 -55 -5 -5 -34
-48 -65 -95 -56 -85 -173 -241 -202 -271 -9 -9 -29 -34 -46 -55 -43 -57 -340
-354 -354 -354 -6 0 -11 -4 -11 -8 0 -24 -455 -362 -487 -362 -7 0 -13 -4 -13
-9 0 -5 -14 -14 -31 -21 -17 -7 -36 -18 -43 -24 -6 -6 -34 -22 -61 -36 -28
-14 -52 -27 -55 -30 -5 -5 -140 -73 -150 -75 -3 -1 -34 -15 -70 -32 -36 -16
-87 -38 -115 -48 -27 -10 -54 -22 -60 -26 -5 -3 -41 -17 -80 -29 -38 -12 -92
-31 -120 -41 -27 -10 -68 -23 -90 -28 -22 -6 -67 -17 -100 -26 -33 -9 -67 -18
-75 -19 -8 -1 -28 -6 -45 -9 -16 -4 -40 -10 -52 -12 -13 -3 -31 -7 -42 -9 -31
-7 -94 -17 -129 -21 -18 -2 -41 -6 -50 -9 -9 -3 -48 -8 -87 -12 -38 -4 -83 -9
-100 -12 -16 -3 -850 -7 -1852 -9 -1745 -4 -1823 -3 -1824 14 -4 76 -3 106 4
110 4 2 4 10 0 16 -6 10 -8 52 -3 60 6 8 6 49 -1 52 -4 3 -3 21 1 40 4 19 5
37 1 39 -9 6 -6 60 4 75 3 6 2 11 -3 11 -5 0 -6 17 -2 40 4 22 4 40 1 40 -9 0
-7 43 2 57 4 7 3 14 -2 17 -5 3 -5 21 -1 41 4 19 5 37 1 39 -9 6 -6 60 4 75 3
6 2 11 -3 11 -5 0 -6 17 -2 40 4 22 4 40 1 40 -9 0 -7 43 2 57 4 7 4 14 -1 17
-9 6 -8 59 3 75 3 6 2 11 -2 11 -10 0 -10 41 0 57 4 7 4 14 -1 17 -9 6 -8 59
3 75 3 6 3 11 -2 11 -10 0 -10 91 0 107 4 6 4 14 -1 17 -6 4 -8 61 -2 61 5 0
6 47 0 50 -8 5 -6 48 3 62 4 7 4 14 -1 17 -9 6 -8 59 3 75 3 6 2 11 -2 11 -10
0 -10 41 0 57 4 7 4 14 0 16 -10 6 -9 99 0 114 4 6 4 14 -1 17 -6 4 -8 61 -2
61 5 0 6 47 0 50 -8 5 -5 60 5 74 3 6 2 11 -2 11 -10 0 -10 41 0 57 4 7 4 14
-1 17 -9 6 -8 59 3 75 3 6 2 11 -2 11 -10 0 -10 41 0 57 4 7 3 14 -2 17 -5 3
-5 21 -1 41 4 19 5 37 1 39 -9 6 -6 60 4 75 3 6 2 11 -3 11 -5 0 -6 17 -2 40
4 22 4 40 1 40 -9 0 -7 43 2 57 4 7 3 14 -2 17 -5 3 -5 21 -1 41 4 19 5 37 1
39 -9 6 -6 60 4 75 3 6 2 11 -3 11 -5 0 -6 17 -2 40 4 22 5 40 1 40 -8 0 -7
93 2 107 4 6 4 14 -1 17 -6 4 -8 61 -2 61 5 0 6 47 0 50 -8 5 -6 48 3 62 4 7
4 14 -1 17 -9 6 -8 59 3 75 3 6 2 11 -2 11 -10 0 -10 41 0 57 4 7 4 14 0 16
-10 6 -9 99 0 114 4 6 4 14 -1 17 -9 5 -9 47 1 63 4 7 4 14 -1 17 -9 5 -9 47
1 63 4 7 4 14 -1 17 -6 4 -8 61 -2 61 5 0 6 47 0 50 -8 5 -6 48 3 62 4 7 4 14
-1 17 -9 6 -8 59 3 75 3 6 2 11 -2 11 -10 0 -10 41 0 57 4 7 4 14 0 16 -10 6
-9 99 0 114 4 6 4 14 -1 17 -6 4 -8 61 -2 61 6 0 5 47 -1 50 -4 3 -3 21 1 40
4 19 5 37 1 39 -9 6 -6 60 4 75 3 6 2 11 -3 11 -5 0 -6 17 -2 40 4 22 4 40 1
40 -9 0 -7 43 2 57 4 7 3 14 -2 17 -5 3 -5 21 -1 41 4 19 5 37 1 39 -9 6 -6
60 4 75 3 6 2 11 -3 11 -5 0 -6 17 -2 40 4 22 4 40 1 40 -9 0 -7 43 2 57 4 7
4 14 -1 17 -9 6 -8 59 3 75 3 6 2 11 -2 11 -10 0 -10 41 0 57 4 7 4 14 -1 17
-9 6 -8 59 3 75 3 6 3 11 -2 11 -10 0 -10 91 0 107 4 6 4 14 -1 17 -6 4 -8 61
-2 61 5 0 6 47 0 50 -8 5 -6 48 3 62 4 7 4 14 -1 17 -9 6 -8 59 3 75 3 6 2 11
-2 11 -10 0 -10 41 0 57 4 7 4 14 0 16 -10 6 -9 99 0 114 4 6 4 14 -1 17 -6 4
-8 61 -2 61 5 0 6 47 0 50 -8 5 -5 60 5 74 3 6 2 11 -2 11 -10 0 -10 41 0 57
4 7 4 14 -1 17 -9 6 -8 59 3 75 3 6 2 11 -2 11 -10 0 -10 41 0 57 4 7 3 14 -2
17 -5 3 -5 21 -1 41 4 19 5 37 1 39 -9 6 -6 60 4 75 3 6 2 11 -3 11 -5 0 -6
17 -2 40 4 22 4 40 1 40 -9 0 -7 43 2 57 4 7 3 14 -2 17 -5 3 -5 21 -1 41 4
19 5 37 1 39 -9 6 -6 60 4 75 3 6 2 11 -3 11 -5 0 -6 17 -2 40 4 22 5 40 1 40
-8 0 -7 93 2 107 4 6 4 14 -1 17 -6 4 -8 61 -2 61 5 0 6 47 0 50 -8 5 -6 48 3
62 4 7 4 14 -1 17 -9 6 -8 59 3 75 3 6 2 11 -2 11 -10 0 -10 47 0 56 4 4 3 12
0 17 -9 15 -10 117 -1 117 4 0 4 10 0 23 -11 30 -4 60 14 53 7 -3 15 -2 18 2
5 8 91 6 112 -2z"/>
<path d="M2402 6231 c-13 -9 -11 -4611 2 -4612 54 -5 625 -3 636 2 13 6 15 56
14 366 l-1 360 611 0 c551 0 759 4 828 19 12 2 43 7 68 10 24 3 47 7 51 9 3 2
21 7 40 10 41 8 42 8 99 24 25 7 61 18 80 25 19 8 38 14 43 15 4 0 23 8 43 16
20 8 38 15 39 15 2 0 34 14 72 32 37 17 71 31 76 30 4 -1 7 2 7 6 0 5 16 14
35 22 19 8 35 17 35 22 0 4 5 8 12 8 10 0 163 95 178 110 3 3 38 32 79 64 80
64 220 201 261 255 14 18 34 43 45 55 25 27 135 191 155 231 8 17 18 32 21 35
27 24 158 352 173 434 3 14 7 30 10 35 3 5 8 24 10 42 3 19 10 58 15 88 20
101 26 177 24 341 -1 216 -7 266 -48 445 -41 174 -129 393 -212 523 -18 29
-33 56 -33 60 0 4 -13 23 -30 42 -16 19 -29 39 -30 43 0 19 -129 168 -225 263
-116 114 -248 216 -380 293 -72 43 -180 98 -205 106 -3 1 -22 9 -43 18 -21 9
-75 28 -120 43 -110 35 -112 35 -114 35 -2 0 -17 4 -34 9 -18 5 -48 12 -68 15
-20 3 -48 8 -61 11 -40 8 -62 12 -125 20 -68 9 -2020 13 -2033 5z m1943 -660
c0 -2 20 -4 45 -6 25 -2 45 -4 45 -5 0 -1 12 -3 27 -5 38 -5 164 -41 226 -65
156 -60 310 -159 430 -278 86 -86 182 -202 182 -222 0 -6 4 -10 8 -10 13 0
108 -198 136 -286 46 -140 65 -272 61 -429 -1 -77 -5 -151 -9 -165 -3 -13 -8
-42 -11 -63 -4 -22 -11 -51 -16 -66 -6 -14 -10 -28 -10 -31 3 -19 -50 -152
-95 -238 -81 -157 -201 -305 -329 -407 -27 -22 -59 -48 -69 -57 -11 -10 -23
-18 -28 -18 -4 0 -31 -15 -60 -33 -53 -33 -162 -88 -182 -91 -6 -1 -15 -4 -21
-8 -13 -8 -142 -46 -178 -52 -15 -3 -35 -7 -45 -10 -47 -15 -186 -18 -767 -19
l-630 -2 -1 1286 0 1286 645 -2 c355 -1 646 -3 646 -4z"/>
</g>
</svg>
